<svg width="32" height="32" viewBox="0 0 32 32" fill="none" xmlns="http://www.w3.org/2000/svg">
<path fill-rule="evenodd" clip-rule="evenodd" d="M27.417 27H1.75C1.336 27 1 27.336 1 27.75V31.25C1 31.664 1.336 32 1.75 32H27.417C27.831 32 28.167 31.664 28.167 31.25V27.75C28.167 27.336 27.831 27 27.417 27ZM26.667 28.5V30.5H2.5V28.5H26.667Z" fill="#1A1A1A"/>
<path fill-rule="evenodd" clip-rule="evenodd" d="M1.25 27.25H2.75V1.25H1.25V27.25Z" fill="#1A1A1A"/>
<path fill-rule="evenodd" clip-rule="evenodd" d="M1.25 1.24993V2.74993H2.75V1.24993H1.25ZM5.08 1.42793L4.335 1.34093L4.162 2.83093L4.907 2.91793C5.391 2.97393 5.872 3.04493 6.347 3.12893L7.086 3.25893L7.346 1.78093L6.608 1.65093C6.103 1.56193 5.594 1.48793 5.08 1.42793ZM9.61 2.36493L8.892 2.14893L8.46 3.58493L9.178 3.80093C9.645 3.94093 10.105 4.09493 10.559 4.26093L11.264 4.51893L11.779 3.11093L11.075 2.85293C10.593 2.67593 10.105 2.51293 9.61 2.36493ZM13.906 4.08293L13.237 3.74393L12.559 5.08193L13.228 5.42093C13.662 5.64093 14.089 5.87293 14.508 6.11593L15.156 6.49393L15.91 5.19693L15.262 4.81993C14.818 4.56093 14.366 4.31593 13.906 4.08293ZM17.834 6.52493L17.234 6.07493L16.334 7.27493L16.934 7.72493C17.322 8.01693 17.702 8.31893 18.072 8.63193L18.645 9.11693L19.614 7.97093L19.041 7.48693C18.648 7.15493 18.246 6.83393 17.834 6.52493ZM21.277 9.61193L20.765 9.06493L19.67 10.0909L20.183 10.6379C20.515 10.9919 20.836 11.3559 21.147 11.7289L21.628 12.3049L22.78 11.3449L22.3 10.7689C21.97 10.3729 21.629 9.98793 21.277 9.61193ZM24.134 13.2499L23.724 12.6219L22.468 13.4419L22.878 14.0699C23.143 14.4759 23.397 14.8899 23.638 15.3109L24.011 15.9619L25.313 15.2169L24.94 14.5659C24.684 14.1189 24.415 13.6799 24.134 13.2499ZM26.314 17.3289L26.02 16.6389L24.64 17.2269L24.934 17.9169C25.124 18.3629 25.301 18.8149 25.465 19.2729L25.718 19.9789L27.13 19.4729L26.877 18.7669C26.703 18.2809 26.515 17.8019 26.314 17.3289ZM27.745 21.7289L27.577 20.9979L26.115 21.3339L26.284 22.0649C26.392 22.5359 26.487 23.0119 26.568 23.4929L26.693 24.2319L28.172 23.9829L28.047 23.2429C27.961 22.7329 27.86 22.2279 27.745 21.7289Z" fill="#1A1A1A"/>
</svg>
